<mxfile host="Electron" modified="2024-06-05T07:22:04.864Z" agent="Mozilla/5.0 (Windows NT 10.0; Win64; x64) AppleWebKit/537.36 (KHTML, like Gecko) draw.io/24.2.5 Chrome/120.0.6099.109 Electron/28.1.0 Safari/537.36" etag="enfp1-KfWnl686f4UyOT" version="24.2.5" type="device">
  <diagram name="第 1 页" id="HGOw7eSaBwKD5irnTQA_">
    <mxGraphModel dx="1843" dy="899" grid="1" gridSize="10" guides="1" tooltips="1" connect="1" arrows="1" fold="1" page="1" pageScale="1" pageWidth="1654" pageHeight="2336" math="0" shadow="0">
      <root>
        <mxCell id="0" />
        <mxCell id="1" parent="0" />
        <mxCell id="gLh5sbINoUW2zUglVE70-4" style="edgeStyle=orthogonalEdgeStyle;rounded=0;orthogonalLoop=1;jettySize=auto;html=1;exitX=0.5;exitY=1;exitDx=0;exitDy=0;entryX=0.5;entryY=0;entryDx=0;entryDy=0;" edge="1" parent="1" source="gLh5sbINoUW2zUglVE70-1" target="gLh5sbINoUW2zUglVE70-3">
          <mxGeometry relative="1" as="geometry" />
        </mxCell>
        <mxCell id="gLh5sbINoUW2zUglVE70-1" value="开始" style="rounded=1;whiteSpace=wrap;html=1;" vertex="1" parent="1">
          <mxGeometry x="110" y="80" width="120" height="60" as="geometry" />
        </mxCell>
        <mxCell id="gLh5sbINoUW2zUglVE70-2" value="结束" style="rounded=1;whiteSpace=wrap;html=1;" vertex="1" parent="1">
          <mxGeometry x="290" y="80" width="80" height="50" as="geometry" />
        </mxCell>
        <mxCell id="gLh5sbINoUW2zUglVE70-58" style="edgeStyle=orthogonalEdgeStyle;rounded=0;orthogonalLoop=1;jettySize=auto;html=1;exitX=1;exitY=0.5;exitDx=0;exitDy=0;entryX=0;entryY=0.5;entryDx=0;entryDy=0;" edge="1" parent="1" source="gLh5sbINoUW2zUglVE70-3" target="gLh5sbINoUW2zUglVE70-8">
          <mxGeometry relative="1" as="geometry" />
        </mxCell>
        <mxCell id="gLh5sbINoUW2zUglVE70-3" value="新增短链" style="rounded=0;whiteSpace=wrap;html=1;" vertex="1" parent="1">
          <mxGeometry x="110" y="210" width="120" height="60" as="geometry" />
        </mxCell>
        <mxCell id="gLh5sbINoUW2zUglVE70-5" value="主Redis" style="shape=cylinder3;whiteSpace=wrap;html=1;boundedLbl=1;backgroundOutline=1;size=15;" vertex="1" parent="1">
          <mxGeometry x="530" y="200" width="60" height="80" as="geometry" />
        </mxCell>
        <mxCell id="gLh5sbINoUW2zUglVE70-9" style="edgeStyle=orthogonalEdgeStyle;rounded=0;orthogonalLoop=1;jettySize=auto;html=1;exitX=0.5;exitY=1;exitDx=0;exitDy=0;" edge="1" parent="1" source="gLh5sbINoUW2zUglVE70-8">
          <mxGeometry relative="1" as="geometry">
            <mxPoint x="330" y="330" as="targetPoint" />
          </mxGeometry>
        </mxCell>
        <mxCell id="gLh5sbINoUW2zUglVE70-10" value="Y" style="edgeLabel;html=1;align=center;verticalAlign=middle;resizable=0;points=[];" vertex="1" connectable="0" parent="gLh5sbINoUW2zUglVE70-9">
          <mxGeometry x="-0.3664" y="2" relative="1" as="geometry">
            <mxPoint as="offset" />
          </mxGeometry>
        </mxCell>
        <mxCell id="gLh5sbINoUW2zUglVE70-11" style="edgeStyle=orthogonalEdgeStyle;rounded=0;orthogonalLoop=1;jettySize=auto;html=1;exitX=0.5;exitY=0;exitDx=0;exitDy=0;" edge="1" parent="1" source="gLh5sbINoUW2zUglVE70-8">
          <mxGeometry relative="1" as="geometry">
            <mxPoint x="330" y="130" as="targetPoint" />
          </mxGeometry>
        </mxCell>
        <mxCell id="gLh5sbINoUW2zUglVE70-12" value="N" style="edgeLabel;html=1;align=center;verticalAlign=middle;resizable=0;points=[];" vertex="1" connectable="0" parent="gLh5sbINoUW2zUglVE70-11">
          <mxGeometry x="-0.0213" y="2" relative="1" as="geometry">
            <mxPoint y="-1" as="offset" />
          </mxGeometry>
        </mxCell>
        <mxCell id="gLh5sbINoUW2zUglVE70-8" value="预扣减" style="rhombus;whiteSpace=wrap;html=1;" vertex="1" parent="1">
          <mxGeometry x="290" y="200" width="80" height="80" as="geometry" />
        </mxCell>
        <mxCell id="gLh5sbINoUW2zUglVE70-15" style="edgeStyle=orthogonalEdgeStyle;rounded=0;orthogonalLoop=1;jettySize=auto;html=1;exitX=0.5;exitY=1;exitDx=0;exitDy=0;" edge="1" parent="1" source="gLh5sbINoUW2zUglVE70-14">
          <mxGeometry relative="1" as="geometry">
            <mxPoint x="330" y="430" as="targetPoint" />
          </mxGeometry>
        </mxCell>
        <mxCell id="gLh5sbINoUW2zUglVE70-14" value="发送MQ消息" style="rounded=0;whiteSpace=wrap;html=1;" vertex="1" parent="1">
          <mxGeometry x="270" y="330" width="120" height="60" as="geometry" />
        </mxCell>
        <mxCell id="gLh5sbINoUW2zUglVE70-16" value="结束" style="rounded=1;whiteSpace=wrap;html=1;" vertex="1" parent="1">
          <mxGeometry x="290" y="430" width="80" height="50" as="geometry" />
        </mxCell>
        <mxCell id="gLh5sbINoUW2zUglVE70-20" style="edgeStyle=orthogonalEdgeStyle;rounded=0;orthogonalLoop=1;jettySize=auto;html=1;entryX=0.5;entryY=0;entryDx=0;entryDy=0;" edge="1" parent="1" source="gLh5sbINoUW2zUglVE70-17" target="gLh5sbINoUW2zUglVE70-19">
          <mxGeometry relative="1" as="geometry" />
        </mxCell>
        <mxCell id="gLh5sbINoUW2zUglVE70-17" value="开始" style="rounded=1;whiteSpace=wrap;html=1;fontStyle=4" vertex="1" parent="1">
          <mxGeometry x="1020" y="50" width="120" height="60" as="geometry" />
        </mxCell>
        <mxCell id="gLh5sbINoUW2zUglVE70-27" style="edgeStyle=orthogonalEdgeStyle;rounded=0;orthogonalLoop=1;jettySize=auto;html=1;exitX=0.5;exitY=1;exitDx=0;exitDy=0;" edge="1" parent="1" source="gLh5sbINoUW2zUglVE70-19">
          <mxGeometry relative="1" as="geometry">
            <mxPoint x="1080" y="260" as="targetPoint" />
          </mxGeometry>
        </mxCell>
        <mxCell id="gLh5sbINoUW2zUglVE70-19" value="创建短链MQ消费" style="rounded=0;whiteSpace=wrap;html=1;" vertex="1" parent="1">
          <mxGeometry x="1020" y="160" width="120" height="60" as="geometry" />
        </mxCell>
        <mxCell id="gLh5sbINoUW2zUglVE70-22" value="B端（用户短链分组）" style="rounded=0;whiteSpace=wrap;html=1;" vertex="1" parent="1">
          <mxGeometry x="920" y="300" width="120" height="60" as="geometry" />
        </mxCell>
        <mxCell id="gLh5sbINoUW2zUglVE70-23" value="C端（用户创建的短链）" style="rounded=0;whiteSpace=wrap;html=1;" vertex="1" parent="1">
          <mxGeometry x="1140" y="300" width="120" height="60" as="geometry" />
        </mxCell>
        <mxCell id="gLh5sbINoUW2zUglVE70-25" value="" style="endArrow=none;html=1;rounded=0;" edge="1" parent="1">
          <mxGeometry width="50" height="50" relative="1" as="geometry">
            <mxPoint x="980" y="300" as="sourcePoint" />
            <mxPoint x="1080" y="260" as="targetPoint" />
            <Array as="points">
              <mxPoint x="980" y="260" />
            </Array>
          </mxGeometry>
        </mxCell>
        <mxCell id="gLh5sbINoUW2zUglVE70-26" value="" style="endArrow=none;html=1;rounded=0;entryX=0.5;entryY=0;entryDx=0;entryDy=0;" edge="1" parent="1" target="gLh5sbINoUW2zUglVE70-23">
          <mxGeometry width="50" height="50" relative="1" as="geometry">
            <mxPoint x="1080" y="260" as="sourcePoint" />
            <mxPoint x="1150" y="230" as="targetPoint" />
            <Array as="points">
              <mxPoint x="1200" y="260" />
            </Array>
          </mxGeometry>
        </mxCell>
        <mxCell id="gLh5sbINoUW2zUglVE70-32" style="edgeStyle=orthogonalEdgeStyle;rounded=0;orthogonalLoop=1;jettySize=auto;html=1;exitX=0.5;exitY=1;exitDx=0;exitDy=0;entryX=0.5;entryY=0;entryDx=0;entryDy=0;" edge="1" parent="1" source="gLh5sbINoUW2zUglVE70-28" target="gLh5sbINoUW2zUglVE70-31">
          <mxGeometry relative="1" as="geometry" />
        </mxCell>
        <mxCell id="gLh5sbINoUW2zUglVE70-46" value="Y" style="edgeLabel;html=1;align=center;verticalAlign=middle;resizable=0;points=[];" vertex="1" connectable="0" parent="gLh5sbINoUW2zUglVE70-32">
          <mxGeometry x="-0.1524" y="-5" relative="1" as="geometry">
            <mxPoint as="offset" />
          </mxGeometry>
        </mxCell>
        <mxCell id="gLh5sbINoUW2zUglVE70-28" value="DoRPC=0？" style="rhombus;whiteSpace=wrap;html=1;" vertex="1" parent="1">
          <mxGeometry x="1050" y="400" width="80" height="80" as="geometry" />
        </mxCell>
        <mxCell id="gLh5sbINoUW2zUglVE70-29" value="" style="endArrow=none;html=1;rounded=0;exitX=0;exitY=0.5;exitDx=0;exitDy=0;" edge="1" parent="1" source="gLh5sbINoUW2zUglVE70-28">
          <mxGeometry width="50" height="50" relative="1" as="geometry">
            <mxPoint x="980" y="430" as="sourcePoint" />
            <mxPoint x="980" y="360" as="targetPoint" />
            <Array as="points">
              <mxPoint x="980" y="440" />
            </Array>
          </mxGeometry>
        </mxCell>
        <mxCell id="gLh5sbINoUW2zUglVE70-30" value="" style="endArrow=none;html=1;rounded=0;exitX=1;exitY=0.5;exitDx=0;exitDy=0;" edge="1" parent="1" source="gLh5sbINoUW2zUglVE70-28">
          <mxGeometry width="50" height="50" relative="1" as="geometry">
            <mxPoint x="1150" y="410" as="sourcePoint" />
            <mxPoint x="1200" y="360" as="targetPoint" />
            <Array as="points">
              <mxPoint x="1200" y="440" />
            </Array>
          </mxGeometry>
        </mxCell>
        <mxCell id="gLh5sbINoUW2zUglVE70-34" style="edgeStyle=orthogonalEdgeStyle;rounded=0;orthogonalLoop=1;jettySize=auto;html=1;exitX=0.5;exitY=1;exitDx=0;exitDy=0;entryX=0.5;entryY=0;entryDx=0;entryDy=0;" edge="1" parent="1" source="gLh5sbINoUW2zUglVE70-31" target="gLh5sbINoUW2zUglVE70-33">
          <mxGeometry relative="1" as="geometry" />
        </mxCell>
        <mxCell id="gLh5sbINoUW2zUglVE70-31" value="调用account-service扣减流量包，DoRPC=1" style="rounded=0;whiteSpace=wrap;html=1;" vertex="1" parent="1">
          <mxGeometry x="1030" y="510" width="120" height="60" as="geometry" />
        </mxCell>
        <mxCell id="gLh5sbINoUW2zUglVE70-35" style="edgeStyle=orthogonalEdgeStyle;rounded=0;orthogonalLoop=1;jettySize=auto;html=1;exitX=1;exitY=0.5;exitDx=0;exitDy=0;" edge="1" parent="1" source="gLh5sbINoUW2zUglVE70-33">
          <mxGeometry relative="1" as="geometry">
            <mxPoint x="1200" y="650" as="targetPoint" />
          </mxGeometry>
        </mxCell>
        <mxCell id="gLh5sbINoUW2zUglVE70-36" value="Y" style="edgeLabel;html=1;align=center;verticalAlign=middle;resizable=0;points=[];" vertex="1" connectable="0" parent="gLh5sbINoUW2zUglVE70-35">
          <mxGeometry x="0.0083" y="-2" relative="1" as="geometry">
            <mxPoint as="offset" />
          </mxGeometry>
        </mxCell>
        <mxCell id="gLh5sbINoUW2zUglVE70-38" style="edgeStyle=orthogonalEdgeStyle;rounded=0;orthogonalLoop=1;jettySize=auto;html=1;exitX=0.5;exitY=1;exitDx=0;exitDy=0;" edge="1" parent="1" source="gLh5sbINoUW2zUglVE70-33">
          <mxGeometry relative="1" as="geometry">
            <mxPoint x="1090.2352941176473" y="740" as="targetPoint" />
          </mxGeometry>
        </mxCell>
        <mxCell id="gLh5sbINoUW2zUglVE70-40" value="N" style="edgeLabel;html=1;align=center;verticalAlign=middle;resizable=0;points=[];" vertex="1" connectable="0" parent="gLh5sbINoUW2zUglVE70-38">
          <mxGeometry x="-0.6474" relative="1" as="geometry">
            <mxPoint as="offset" />
          </mxGeometry>
        </mxCell>
        <mxCell id="gLh5sbINoUW2zUglVE70-43" style="edgeStyle=orthogonalEdgeStyle;rounded=0;orthogonalLoop=1;jettySize=auto;html=1;exitX=0;exitY=0.5;exitDx=0;exitDy=0;entryX=1;entryY=0.5;entryDx=0;entryDy=0;" edge="1" parent="1" source="gLh5sbINoUW2zUglVE70-33" target="gLh5sbINoUW2zUglVE70-41">
          <mxGeometry relative="1" as="geometry" />
        </mxCell>
        <mxCell id="gLh5sbINoUW2zUglVE70-44" value="Y&amp;amp;N" style="edgeLabel;html=1;align=center;verticalAlign=middle;resizable=0;points=[];" vertex="1" connectable="0" parent="gLh5sbINoUW2zUglVE70-43">
          <mxGeometry x="-0.0736" y="1" relative="1" as="geometry">
            <mxPoint as="offset" />
          </mxGeometry>
        </mxCell>
        <mxCell id="gLh5sbINoUW2zUglVE70-33" value="code=0？" style="rhombus;whiteSpace=wrap;html=1;" vertex="1" parent="1">
          <mxGeometry x="1050" y="610" width="80" height="80" as="geometry" />
        </mxCell>
        <mxCell id="gLh5sbINoUW2zUglVE70-39" value="更新redis流量包，发送消息通知用户" style="rounded=1;whiteSpace=wrap;html=1;" vertex="1" parent="1">
          <mxGeometry x="1030" y="740" width="120" height="60" as="geometry" />
        </mxCell>
        <mxCell id="gLh5sbINoUW2zUglVE70-41" value="更新流量包" style="rounded=0;whiteSpace=wrap;html=1;" vertex="1" parent="1">
          <mxGeometry x="560" y="50" width="120" height="60" as="geometry" />
        </mxCell>
        <mxCell id="gLh5sbINoUW2zUglVE70-45" style="edgeStyle=orthogonalEdgeStyle;rounded=0;orthogonalLoop=1;jettySize=auto;html=1;exitX=0.5;exitY=1;exitDx=0;exitDy=0;entryX=1;entryY=0.5;entryDx=0;entryDy=0;entryPerimeter=0;" edge="1" parent="1" source="gLh5sbINoUW2zUglVE70-41" target="gLh5sbINoUW2zUglVE70-5">
          <mxGeometry relative="1" as="geometry" />
        </mxCell>
        <mxCell id="gLh5sbINoUW2zUglVE70-49" style="edgeStyle=orthogonalEdgeStyle;rounded=0;orthogonalLoop=1;jettySize=auto;html=1;exitX=1;exitY=0.5;exitDx=0;exitDy=0;" edge="1" parent="1" source="gLh5sbINoUW2zUglVE70-47">
          <mxGeometry relative="1" as="geometry">
            <mxPoint x="1400" y="650.1666666666667" as="targetPoint" />
          </mxGeometry>
        </mxCell>
        <mxCell id="gLh5sbINoUW2zUglVE70-47" value="持久化短链信息到DB" style="rounded=0;whiteSpace=wrap;html=1;" vertex="1" parent="1">
          <mxGeometry x="1200" y="620" width="120" height="60" as="geometry" />
        </mxCell>
        <mxCell id="gLh5sbINoUW2zUglVE70-50" value="结束" style="rounded=1;whiteSpace=wrap;html=1;" vertex="1" parent="1">
          <mxGeometry x="1400" y="620" width="120" height="60" as="geometry" />
        </mxCell>
        <mxCell id="gLh5sbINoUW2zUglVE70-51" value="" style="endArrow=classic;html=1;rounded=0;exitX=0.5;exitY=1;exitDx=0;exitDy=0;entryX=0.5;entryY=0;entryDx=0;entryDy=0;" edge="1" parent="1" source="gLh5sbINoUW2zUglVE70-28" target="gLh5sbINoUW2zUglVE70-47">
          <mxGeometry width="50" height="50" relative="1" as="geometry">
            <mxPoint x="1190" y="500" as="sourcePoint" />
            <mxPoint x="1240" y="450" as="targetPoint" />
            <Array as="points">
              <mxPoint x="1260" y="480" />
            </Array>
          </mxGeometry>
        </mxCell>
        <mxCell id="gLh5sbINoUW2zUglVE70-52" value="N" style="edgeLabel;html=1;align=center;verticalAlign=middle;resizable=0;points=[];" vertex="1" connectable="0" parent="gLh5sbINoUW2zUglVE70-51">
          <mxGeometry x="-0.329" y="-2" relative="1" as="geometry">
            <mxPoint as="offset" />
          </mxGeometry>
        </mxCell>
        <mxCell id="gLh5sbINoUW2zUglVE70-53" value="发送的MQ消息初始化一个DoRPC的默认值0，对于B端和C端的消费顺序无法保证，不能说流量包不足了，B端执行RPC失败但是C端却持久化到数据库了，更不能说B、C端都去调用" style="shape=note;whiteSpace=wrap;html=1;backgroundOutline=1;darkOpacity=0.05;" vertex="1" parent="1">
          <mxGeometry x="30" y="680" width="229" height="130" as="geometry" />
        </mxCell>
        <mxCell id="gLh5sbINoUW2zUglVE70-55" value="" style="shape=image;verticalLabelPosition=bottom;labelBackgroundColor=default;verticalAlign=top;aspect=fixed;imageAspect=0;image=data:image/png,iVBORw0KGgoAAAANSUhEUgAAAJsAAACxCAYAAADTVs/cAAAgAElEQVR4Ae19BVwW2ff+2iIhghIGIiqCgYod2N0KJooCFti1Jq6K3R1YCCYiiooiiEp3l4oFiLq6ru2qu/t7/v9z2HnlJRRcXPHrfT+f85mZOzM3zn3uc849M+/cnyB+QgP/kQZ++o/KEcUIDSBfYHvzx3ukPXqBW/ef4Va6kB9eB/efIf3XF3j77kOBhlCeYPvr779x9/5zHPJIwMJdfrDfH4wVjqFY4Rgm5IfXQSiW7Q+C3W5/HL6QiPu/vsTff//fZ4GXK9g+/PkXfMLuYeneQOxxT8TV2KcIvfkS4bdeI/zWGyE/vA5eMx4uRz/BzjPxWOoQiMCY+/jzr78/CbgcYPu///s/+Eal4ReHQFwIe4CkjA9IfvCnEKGDXDGQmPEB7kH3sXhPAMKTHoLwk9cvB9ge/f6GKfJcSEaumQvgiYGXGwZc/VKx2ikUv714mxfWck4QzvmlYLNLLOLT3wmwCTbLNwbi0t5h9eFIXAlPzT/YVjsFwz1YsFpuo1ekfZrVT1y7h+0nI/MPtjlbr8I/8fd8I1p0wKc74EfSj3fUr1iyNyD/YJu5yQchN14IsAkTWmAMXI37DXa7/QTYfiSG+VZtFWATDFVghvpSsAqwCbAJsH3p6BH3Fd0JiWA2wWyC2QRDFV2G+tK+EcwmmE0wW4FGT8YHJKS/K/BLAQnpfxT4nqT775GQ9ke+Oigx/Q+uV4Hakg38ienvEHHztwLXMz9lxt59ieT/8EWK74/ZMj4gPvUN4lJfy+SUVygMGzTCxj1HZGnS+aSM9wyMoISHGDN+Kk57h7OCY+6+wpCR1ujYtSfCrj/JF3jO+8aiTfsu0DdogB0H3JD8IO83XhyOnIe+YX04nvSS5X3iXADmL1kvJ55ByYi9+wpL1+7CknU7EJ/2VnZ91O0XGDjEAk2at+Z25QaglZsd0Kuf2Sdli8OxHKDyDExGteo1MH3eMiTez9RRbvkXZlqRAtvJCyHYvOcYghN/lSk8e2OD4h+ie59BMDJuJpNaBnVRomRJVl7W9CYt28DtcgTnddo7AppalRkAzm6XcSn4OpSUVTjNfOwkWNrOkMmqrQcQn4W9iM2OuvtBt6Y+NLS0oVuzNiqoVcSydTsQd++NXF13HjoNk849ULehMYoVK8bl0XG3vqYYZT0ZJUuVQlUdXaiqqeOnn37Cbmd3hCQ+Qpce/aCopAybmQthOsISPfqZonvfQahcVYfz6dSjD6dR+qa9R2VlmlvZQkW1AgYMNsewUWPlpL/ZcM7TdtoCObBRnc1GWHL5jYxbwNzSJldxdP04ULL3w5ccf3Ow0ftw0XdegkZaQ+PmKKeoCJeLwTJlZm9UxM2nsJ21CENGjUOPPqZQUFBE6TJluEPKlCmL4sWLo22Hrhg8cixGWNrAMzBJltcxd1/o1aqDsTYzYWE9CcWLl4CGVmUGHAFRQ1MbpUqVRo9egxB79zWbrtCkx1i2bhefI5DsO3YeFwMS0LRlW5QtqwCridNxNfyOjB027jkKwwbGqFXbEMbN28DIuDkDtHmbDhhpNYkHxPFzfuhvNgLllJRwNeI21y8wLgOmw8ZgEAGtrynqN2yKYsWLo0pVHbRr3x2NjFuiUiUttDHpgo07nWVtIrApq5RH11790WvAEDnp1KMvFMopIivYiMUIRFR31Qpq0NSukkPUKmqwHhcu2yArJ3s/fMnxNwdbSNIjdOvdHxqalXmkfQ5sBM6rUfewaMVmGNZvxIqavWA5M8XYyXM4rZKmNibNWAgP31iQz0P3SEL3Llm9AwTMTt36ID7tDZLId0t/h7DkxwyiHn0GIebOS+w/7gHjFq25Xg2btMRZnyhZPkHxD2A6fAyDvFp1PSxduxMxd15x51hPmo2WJh0RmvwYp71CGVQ7HE/DdsYi1Kipj1OXQlGnbgN06zkAsfdeg0z6ul1O8ItJQ9y9TJCPmzyHmXfP4XNc5sRp81GxkgYOuXrL6kBtspmxAJWrVoeevgFqGdaXE706htCuooOfF60GsTNdf/ZKFKpU0+VBeu5atFxeko5cPUOgVrESFq7Y/L8FtrCkx+hjNhyde/aFSnnVzzLb0rXbUKpUKZbeAwbjathNuHmFoFW7Tti89zgCY9NgbTOdO5jM1LBR47B1nwvKlivHYtS4GeyWb4KSsjKDiK4hqaSljcNnrqJpizbo0ccM567GQqtyNahX0kCVatVRz8gYjZu2yiGqqmogsJVVUMAOx1MIiEnF1DmLuTM3OxyHmbk1A9L1YhAmTJnHYPtl1RZmjo27M83hoROeUFJSQcMmzXE14g5mLFiG0mXKQq+2AWxnLsSI0ePRuFkrZroatQzgE3YLBPbmrdrnW/oMGApiz6EW42TtLvOPTiTd0NbdJwIuF4LZTVi8avv/FthoNNHo9o/LgGGDxp8F25Xw25j7y1r0HjCEwaleUQNq6hVRTlEJ5SuogY4rqKmjQeNmmL7AHkfdfUH+2sQpc9GwcXPUMagHn9AU2K/fxUpftmYXrCbMREVNLTi7XYFxs1bo2c+MmW2PszubzPnL1qNLr/4sBMBy5RTRoWsvPrYYNwWXApOxy/EMwm48YVNIdSEA05Z8NNovr1oB/c3MGWzDLcaxj+l86jIzS3zqW2zcdYTZxGbafAwYMhJVdWqwv0cga9exBw+Anv0Hs+mzW7kFUbeeY/32Qxg0ZBS69x74SaHytu49gchbz+ETloKF9ptQumxZNGvTHvPtN7AMHGrB9XTzCsWxs/4or6oG+7W7/7fAJtn+0Ou/oV7DJnJguxSUzOZw/OSfQbJl7wlZKMHSZiazg830ucgq46fMQY1addDKpDPCb8q/dzfWdhaDzTfyHjY5HGPlzphvj8EjrECm19nNB42atEDvgcPkHP/E++94lkgzxX6mw1G9Ri0EJz3itKzhEwq/OLlexs+L12KO3Wo5WWS/GRZjpzLYaADUb9gELdt0QMQ/daQJyU7H0wiISYfjyUvMcss37Gb/bcmqbVi5yQEjLCdgs8MxhCZ/nEBVrqbLfmezVu3QtEVb1h+xMfmUJOoammjZtiPPeCVdhyT9ijIKChg1bgpCk5+wrN56UAY2p1OX2YSv2+r444DtgMslnk0VL1ECJGbDrWWzRALbTz8VQ+06deWEHHNilPyCTbtKNZBDTGBzOuUDo8ZN0c90BOJSM2eZbpdCMNxigkyq16jJHUH+mpS+bvtHhz0h/S0aNmmBBo2ayMnk2YsxfspcBhuZwbU7nLhzD568xB1K7D5m3FRY2c7Ctv0nUVahHFZscEA1HV1Y2czE6IlTUdeoMQLi7ssBgCY41Ib2nXuiXafuPCGoWEmT9006dUclDS00b9UuV7DRhMi4WWuWGjXrcH0cDp/FwuWbeKK044CrXFkSWL90+80nCFLFc2M2v+g0rNnmiBWb97EcOesrm/VlMlsJzLVbKyezF6xCLf26eYJNv05dOJ7wBJkiMm/ewTewbocTg42cb4rXDRo2WhbvIuWra2rKhMwiAV+tkoYszdp2lqxTEtLf8HmaWVuMncShCAqTDBhiwWDT1auNy6Ep7JtR+QvtN/K9XiHXoV5JEyMsJ2Lpup1QUlLGxt1HcoDNLyYVWdlUq3JVZtqefc1AExuamWpqV+bwEIWIKHTSonX7XMFWv6ExxtrMkpM2HbqgRIkS0NGtCc+AZFm7pH76N9siDbZPNSyT2TKde+q07JIXs9EslOJZfQcN43todkh+GDHbQRcv1NI3xNBR47lDcyuf4lkEmPCbT3PtCAlsU2Yv5fNkpuo1MJaBTbtyNTbbHbv05vJ3HjzF19EMuXTp0jjs5gOz4ZaooacP51M+OcC2eOVW9inJZwu/8QTDRo9H30FDWWjCVE5ZmWfotC+ljx43JVewjZ3yc442XApOxp7D7ti+/yTG2c6Gf6w8k+amk/ymfXdgo8474n4NKzY6YOrPdnmK3cpNHL2/Fp0qU2ib9l15ZtiuY3ccOHYBPy9ew0J+27R5S3g2SbNUywkz2HG/4J+ArftPygnNVgmYa3cckks/yE8K6LHZP8zWmJhtMoaOHAuasWZlNtMRo3nWO2b8dHbaI1N+R/PW7aCrVwtH3a+wKew9YBg8AxLlwEbB6zETpoLMZETK7/AMSkLvAUPRqVtflo5de/NAItNJ+1J6p+59EX7j4yMvyWfrM2gEPPzicTEgUU6o3SOtJ/FkhM7nF0yfu67IgI2c64sBSXD3iUb07bz/4+B8+iqq6eqhooZmvoRMsKQEM3MrmFvawj9GfrSe9Ylmh5z8H4Vy5eDokhk5nzbfHkoqKnJSpmxZkCgqK8ulN2tlgmR6bvoP2AgQFC4xqGeEMmUVZGAjJvXwjeMYHJlDqht1LoU5xk2ejWEW4xlMLheDOMRRTacG+2zzl67ncmkw1K3fEAGx6aipb8jmTkdXDyQUgqGgNAVyaV9Kpy0Fg/1j0rk8Ampdo0Yca+SgdvbArlZllC5dBo2atuCAu6S/f7stMmDLb0NCkh7D+fQVOLp650t8szCbf2w6om+/lIFPKpOeSqzesg8Llq7H/hOeHAimc94hN/NVBtWFArX0rJQCxBOnzwcFY4lBfKPTMH/ZBmzf54J9xy5g7pJ1CM32LJYCua6eoRySoSceB0548qybnqwccvGCx7VYBCU+wrptB7F07Q64XQpD9K0X2Lz3WL5lt/MZ0LNWahc9RTh3JQqr/vGFJZ8463bddkdmVklHhbH97sBWGI0WeXybd+UE2LK90iOA+PWAKMAmwJbDrfhaA06ATYBNgO1rjS6R79czk5/TrWA2wWyC2T43SsT5b8dQX6p7wWyC2QSzfenoEfcVXcYrMLOJ77MV3c4s6gOtwN9nW+MUgjPB8s8Wi3ojRf2KxgA5fu0udhTky5Pn/W9h04kY8U1d4esVyNfjb+o6R+BqRAG+qfv4WebXwt0FuxVI2T86u7r43sNqpzD8/vKP/H95kr5jHxh7H4sdAkCfp/+v/k39o3fW99p+wodbQBrs9vgj8vqjgq2DQLD88Off8I1Mw7K9gdhxOh60kkfwjRcITXmF0JTXQn54HbxC8PUXuBTxK7adisOyfYEIjX9Q8BVeJA6ktYhSH77AUc8k/OIQgOUHxNpVYt0uad2yUNgfCOblpk54XceDx6++fO0qCXDS9u2797wY1p2M5xAidEAYyHj8En+8L6RV+SSgia3QQGFpIMfaVYWVschHaCC7BgTYsmtEHH81DQiwfTXVioyza0CALbtGxPFX04AA21dTrcg4uwYE2LJrRBx/NQ0IsH011YqMs2tAgC27RsTxV9OAANtXU63IOLsGBNiya0QcfzUN5Atsb9994Gdhdx88hxChA8JAxpNXhfdslN76SHv4Ase9knnd7+UHg7HSMRQrHcOE/PA6COW3gOz3B8LF+zoePvkXb338+eff8I9K5/eUtp+Kg3fUYwRdf4HQm6+ECB0wBoKSn8Mz/FdsdY2F/b5AhCU8xF9//f1JE5zDjNKbukFx97F4TwDOBt8Xb+qK/yJ88vV4elP3lH/mm7rRNwr4pu6T52+xbH8Q3IPEP6y+11e1v0W9Xa7dw5qC/gfB459/V8Wlv/skor9Fg0SZReMve7n1Q2zqO6xyjsC1gvy7aq1zCM4IVhMD7Qvch+NX72KHa1SeflsOn038I77oskdujFKU0ryifsXSvQH5B9vMTT4IuZH317yLUuNEXYrWwCjwtz4E2IpWB35PA0qA7Qt8j++pg4tSXQXYBNj+s8mOAJsAmwBbUaJ/UZfC8VMFswlmE8wm2KRw2KQo6fG7Y7a41LcISniIwLgH+RJpcTBSul9MGi80dupSWK6jOfLWM7h4BCMo/mGu52kVvX1HPEDLWYdf/y3Xa6TODU1+/Mn6BSfIl0EL+frHpsnlSasr73I8jTVb9skWb5Pyl7bewddx5MzVT8qViDu8iJt0D20p719WbcOJ8wFIyngvV27W6wpzv8iALTH9HS+L+KnlH6nhtLQ2LUBLSyPmR+zXO/DCrut3OWPukrW8dGOrdp2xbqcTC62qbDFuCrr1GYTahvWhWkEdE6fORUJa5vKMkrIJ5HMWr4ZKeVWULFkKffoPZdDTSnzSNVm3TVq0/WT96tRtILsvOPERL7PdqGlLuF+JwsmLITh6zg/Op33QyqQjr/t+8KQnp1F6Jngymc960izQ8tu0Xmnrdp3kpFmrtryc5Iy59kjO+FjPpPvvQWvCFy9enBfaPXM5AmcuR+aQwPgHsjpmbduX7hcJsNHo6tl/CK/PTut2zv1lLWil4Nwa5RV4HTPnLcfYibNgPWEmS+/+Q1G6TBm069RDlkbnJs+ww4nzgQiOf4CKGlooUaIk1CtWgpp6RZQoWRLqlTRgOWE6SpYsicZNWsLM3BJL1u4AKT/xvvSiwQdE3PwdU+YugYKiIrr2GoAJU+fxOvQduvTE1ci7uTKDdhUd6NSoifGT5+QQWnNUSVlF1j5imfXbD0FLuyqatjaBnr4Bg4TWNC1bVgGKisp8rFpBDbQ+6Lwl62T3mlvZ8oK2bTt2RadutKDtR2nTvjOvNW87bYEc2ALjMlBbvy6v5KykpJLnuq3263bKysmtLwqa9s3BFhB3n5fBpnXX1TU0ecFVWoJ79qIVeS6dfd4vDi1NOqJxs1Ys+gb1eF1z3Rq1ZGl0zuHIWVZWQvpbrNi0lxd93XHwJLbsOw5lVVUsWrUFcxevBa08nNuKwbTg7hmfKPToY8r5d+9jiqvhd9gELVq+CbRevGG9htjh6IqYu6/kOobA1rX3ALk0qXP6Dx0lB7akjA+ITHmKo+5XeZXow6evMKBpQNBitwePX8KY8dOY0TftPMLrkkp50YrHtC48g61nX3TKIq07duU2T5q+UAa2yJRnIIAWK1YMFuOnYPkGhxxiO3MRFJVUZOvXS2X92+03B9u6bY5M5x279AEpYsu+Ezzi6jdswovD5tZAl4vBbFo6d++LKbPseE11Wt2YWIeOR1raMnOt3rqfO5vM1EL7TShevARMR1hhxBhbBvW0OUswZfZi7qyFyzdi+4GTMgmKy4DtzIV8ju6ztp2J+cvWwbhpa2xxOI7Yu6+xdvshqFXU4LJ69DXDpaBkGbgKAjZaGNegfkPYb9jD918Ou4k6dY1Q18gYXsHXcTn0JsytbFCseHGMtJqE+LQ/GNz7jnpg8iw79Ow3+JMyc549CMAxd15i2twlDDRizElz7DB9wXI5CYy7z2ZcTb0SFq3cImtPbv1Q0LRvDjZauXioxXjscjrDDTvtHc5g06tlgLx8BgIbmTQyfQNMR6GNSVf2o4ybt+FjWhOdmFICG608TL6YiooqpxNjkBmjtdsHDrZg5dP1JbLI+SvRqGvUGE1atMFh92vsoO896sE+FHVUS5NOPOG4EnYHA4aOQiUtbTi5ecs6h8BG96/aejCHNG7eWo7ZfCPuolPXPrxUNjntZP6I3QnkVBa5CFRn2tKS3Bt2HUFAXAavM09r1udHevQ2RUBsBtbvdIZBXSPWg4pqBdSsY8iiqV2Fy3TzCsXx84Gsr6Wr/8fMaNbR4ROawo4yKdp02Bhmtov+ifDwjWeh2SSZHAZbuXJo2KQF+g02Bzn85HcZN2/NxyadujNbSmDj5a9PesPxxCU0atKC107fd+Q8HE96YY7dGqiqqWOPkzvad+oBDS0tXPSNR0LaW3j4xuKCXzwIUJKcvRwFm2kL0NC4OS74JXK6d/ANuHmFIT7trRzYCCxk4rKLBPasbfeLToXpcEvsdT6HZet2waRjN0ycNhfWtrOwetM+7HE6gyVrt6NHX1M4n/JmnzI06Vc0btYa1WrURK06dVmq6OiiWg092THt0+SH/DR6RTs+9S0uBSajjIICRljZwj/uPsvyjQ4ysB05c40nQqs27pO1J2tdv3T/mzMbVZxmR0fPXEPjJq3YVBjWbwjvoBugRuvVrIPKVXRYrCfOYhMiga1jl95sBgcOtUCp0qXRtfdAPja3tOHJgAS2sOu/waC+EXSq67HDXKpUaZ4p6ujWxKyFy9npJlD36j8ElatVk1Pw8NETuA5UD0l0a9QGMYF0bNKhG65F3pW7j5iNJjs0QckuJp17yDGbpIOdjm5wvRSKgyc8efKyYoMD9A3qYuK0eRg/dQ6Mm7eCd8gNuTAGTRjIVx0wZBT6mZlDUVEJVDbt9zMbgcpVddC8VTuekUsgobXrCWwduvbGxt1HWcaMny4Dm8Phc8yom3cdkWuTdP+XbosA2D5g5yE3aFWphlKlSqFHPzNcjbzDDHb0rB/06zaAjl4tlnFT5zLY3K9EQ7emPl9fpbouFJWUmMk0K1eVXUv3bD/gwsqi2d6CZRthO2Mhj/hKmtqwGDcVM+bZY+TYSdA3rA/fqNRcwbZt7wn8bLc6V7GaOJNNXfM2HRB6/YlcxxTEZ6POI7+yoXELdOzeh31BMpdrtjmimo4urGxmYvTEqWyWaUKVtbMJbPqGDTDKejL7qhXU1Jm5acCR6OrVzhNsZJbLq1aQE9PhY0AhGNLpIdfLcmVlLfdL9r852CiQSQrj2dG4ybgcchO+kffgH5sOmg3m1igyB/OWroeCkhLP2oz/v19FZuRa1L1cryfmnD7XHhoa2mjQqAmbiCrVdDB74Up07NYbrdp2ROTN33MFW27lUxpd37XHAPajDrh45ii3oGAjB55mt3Yrt2DGfHuoV9TggG52sDm7+TDjkw6oHm07dkPdBo1YyCIQw5PZpn0pffAIK8Tdey2ro8Rsw0ZPgF9UqpwsWL4eTVu2gdXEGfAJuSm7Jy89FCT9m4Nt7fbM2WimQ1ycHVdy1rW1q4Ki6rk1hkMFN55ipJUtUz/dW9ugHnYdckNAbHqOeyJTnnMMj5zwNu27MDA79+oHvVp1QLNYM3Mr9mdyM6PZy2ef0SMIzVuacNk2MxbIdaR0PYGNArfEqNmlfuOmcmaUYnqDza2hpKSMK6GZM1Gjxs1x2is8B7NRSIhCNWHJj+EZmIhmLdvKQMVgK1OG8zasZyRLr9/QGBEpv8v0IoHNatJsWZpUb3qaQAH2NVsPoIJaRZy+HJHjGunagm6/Kdio4yiS363XQHTNJqT8kOTHORrq6hGM2QtXYdBQC2bEMmUV0KylCWrWNoSSsjJ3RIs2HWA2wgo2M+Zj/XZHOB73ZDM7auzkzBFfvxGcTl4G+U7kvx0+fY3L+RzYguIeYLjFeJ5QkJmZMtsOWR+HZVU+gY0mLRQ4zi7EPlmDupdDU0CB3s7d+8B25gKuq92KLaB0idnGTp7NwVfy2zS1KyP8xhMsXbeTzaf5GBuQkH9Jgd9qOnoYbjGB06RzW/celwXKSa80E6UZ/+jxU2FlM0NORk+YBt2atfnJhH9MzsGbtZ0F2f+mYCtIRaVrt+51QXW9WjCs34jZYO+Rcwi/8ZQf4ew5fBYWYyejaUsT1KlnhGq6eug3aDj8YtIxdc4SjJ00G9pVqmHClJ856n/CI4gdaWI+yn/EmIlo2KRZDoBLZYff+A29+g9G+y49ccDlAuJT3+R5LYVheg8cinPXYnPI4JHWMKhnJLuXXIYRljbY5HCUZ6IDhljwozvqaBqIFCN0dPVmdiYGt7aZxUs61WtojPwKTab8YzP9vbh7b2AzfS6HQCiel5uQCZ65wL5Q/4T+3YGNApM04sNvPpV1lgQG2TbjA5+/HJYCCilI6cRMF/zjEXvnY7Q/IuUZT0boGt+oe/AMTJJdL92XdRt2/Qmib33+Dz/0/FLq3Kz30z6ZsSvh9HD845sd5FeS+aLwidyjOvLN/nmuGXnzKUKSf+XryCrEpb4ukNA9sjIzMh/DkR5zE65D1uuz1FWWRwHTvjuwfWlDxX0fgf2tdCHAVsDR+a066n+hXAE2AbaPpvUr60KA7Ssr+H+BkQqrDQJsAmyC2QprNIl8vv3EQOoDwWyC2QSzSaNBbIsOM/3bvhDMJpit6DLb7C1X4Z/48aHuv0W7uP9/h7k+15feUb9iiUMBvs+2+lAwzoZk/Gej4XMNEOe/H7C6+N7DNpeI/H8M8JxfCja7xCI+j3fNROd/P53/X/ZVXNo7rD4ciSvhqfkH26Onr/lr4edCC/cPrP9lw0VZ//2AoM/TrzoUit+ev80/2GgdhGuRaViyNxAXwx7K3pgQHfjfd+D3oPPEjA84G5yBxQ4BCE18AMJPXr8cH3CmCz98+AuXQ+8x4BzOJuJa/FOEpbxCxO03QoQOGAOEhysxv2G3ewJPCgKi00ErA33qlyvY6Ia//v4bt9Of4eC5eCzY6cumdYVjKFY4hgn54XUQiqX7g7Bolx+cPBKR/ugFaK2zz/3yBFvWG9/88R6pD58jJf0ZUtKE/PA6SH+GtEcvQKs1FuSXL7AVJENxrdBAXhoQYMtLMyK90DUgwFboKhUZ5qUBAba8NCPSC10DAmyFrlKRYV4aEGDLSzMivdA1IMBW6CoVGealAQG2vDQj0gtdAwJsha5SkWFeGhBgy0szIr3QNSDAVugqFRnmpQEBtrw0I9ILXQMCbIWuUpFhXhoQYMtLMyK90DUgwFboKhUZ5qUBAba8NCPSC10DAmyFrlKRYV4aEGDLSzMivdA1IMBW6CoVGealgXyBjf7M8OHPv/D+gxChg0wMEB7y8yeXrMD7JNj++utvJN99iuNeidjuEomNR8Ox8YiQH14HR8Ox42QkXH2ScSP190/+VzRfYEt7+BLbj0fAbk8AHM4m43RAGs6HPsT50F+F/PA6eAg3/zTsPpOEhbv9scc1Go9+e50VV7nu58psdzKeY9XBYOxxT0T4rVfiX/His1u5fmgo8f4H/vP6Ntc4rHUKxf3HL3MFmZSYA2z0X8CtJyKx93wS6GMh38MnAEQdv+2nIWJT/8B2tzjsdY/Fu/d/StjKsc0BtpD4DCx3DEX47Y+rvInO/Lad+T3oP+TmKyzdH4LYlF9zgExKyAG2XSIxDhcAABIRSURBVK5ROOIjv5Dr99BYUcdvPyD2XbgJJ48ECVs5tjnANn+nL67GyS/kKjry23fk99AHF8MfYPnBoBwgkxJygG3mJh8EX89cxe57aKCoY9EZCFdin8But5+ErRzbXMEWcuPzq9KJTi46nVxU+kJ8LVyELf6ziIIAmwCbAFtRoX5Rj8JzBwSzCWYTzCYYpfAYpajoUjCbYLYfg9mSMj7wQ/z8brOO0Nh7rxF952W+FSWVkTUPaT8h/Q9E3XoO2ibef58tzw8Iv/kUVB7lQffQNubOKxYpTcqLtpRHQvq7zwpdl/X++HuvuR5SHehcdMpzRN9+IXedVBZdF5/2Nse52Luv4Bd1D3H3cn+kmHj/HWLvvv6kxKW+QfKDzPZK5VF9QpIecZ2y1ls6/7ntN2U2D994jLOdk2/J2pjhY2xQ27DeP51Pnfs2hySmv0VyxgfE33uDlZv3wjvoRjYgZZqqfcc8UElTC+NsZ2PmvGVy15DSTYePRtMWJoi6nRnMjrz1DCaduqN1+y6IS30rdz3Vce2WAxhibv1Z+dluNTI7NbMesxetRDlFRfhF3uM8CdCduvVBXSNjxKf9IVcOdfaqzfvR12w4rkTcljs3a+EKKKuUx5EzV+TSJf05u11GvQaNPimmw0YjOUN+4PnFpMGgnhEM6jdE4n35+kh5f2pbqGBLuv8e567GYLbdKlhPmoVla3fhWlRqrg2mSh065Y269RvJiaZWFfz000+oWcdQLr2ekbFcPgOHjUbV6tU5bcs+F6ioVoCSsoqcaGpXwckLwfAOSYGaeiX06DOQAeN0+irW7XSWybgpc6GkUh6de/RDyZIlsWXPUWYMquOlwGSoV9RA89btUbeBMfQNG6BmnbpQUFRE6dKlUcugPqcZ1G+E/Sc8uT6mwyxQtmw5GNZrCKNGTVFNp0Zmm2rX4eP6Ro0ZDE1btWN2Jr1FXH+Krj37o7ZBPYQlPWEQXg69hSrVdNHfzBzRt54j9s4rloS0P5jNFq/cgvKqajA0aozu/cxQU9+ARUNLi8urpKUtSzMbacWsSW3a4XiKz3fvMwjDRo3NIZWr6qBxk5ZIzsbysxYsR7FixaCqqobmrdvlKrYzFrAVyA10hQq2U5dCUbO2ATekdOkyKFGiBJq2aIurkbk/uCfTdPZKNDbsPooNu46wDBg8ku9fvGa7LG3r/pPwi07jjjxw4hKatjKBWsVKKFmqFO9bTpyOMgoKGGw+FtPn2rP06GsGZRUVHD8fAOqcSbMWoXSZMnA4fBZtO3RjsGhoVwaJqpo6fipWDOVVK0C9kgY6duv1jzl7h5kLVqBEyZLYtOcITM0t0cd0OHr2H8xMqKZeEb0GDuW0/kNHwdUzVAY2AuX5a3EITniINdsOcJv2HHXn4yvhd9C6XRdIYKPrjBo3g4JCOSiUKwddvdoYPWEatu07geLFi3O9aujpo0bNTFm2fheXQ2Z/234XmFvZYPGqrRhlOQmlSpeGdhUdjLKcDNNhlqikoYUhw62xYr0D4u6RafwItk7deqPfYPMcoqFVOQfYSI+Vq+hAq0pV1h/pMKu0MunMA71774EgM/7VwWY5cQaKFS+OoSOtcdDFE9X1avPxpl1Hcy2cKrR+pzNKly2LCuoVoa6hySAgZiMA0LGisgo0tKsgKD5zJcCDLl5o2aYT1CtqMthof/S46VBRVcMRdz9ZOet3HUb5ChUYbFQO+RpVq9fAuCk/o2Xr9mjVvhN+WbUN85dsgO3MRVCtoAYyY7scXeHqGcL+1qlLYaBRrl25Kvs/q7YcgOXEWRhpPQWVq1VHRU0tWIybzmnzlqyXmR1iNq3KVTFn8WoQMIZbTmSwjZ08m48XrdiMWgZ1ZWCjcqi9bdt3hdWEGVBWVUXbzt3Rsm1HZmSzkdYgIfYqV04RsxatZOYlC7L94ClE33nBx0vX7UKpUqVAW/JBdzq6oUxZBYy0msT+Gfl4wYmPsP3ASTbNRsYt0Lh56xxS16gJ+gwcDv/oNGYpn7AUGNRriJIlS2HG/GU47xsnJ5Rn1K0XqGvUCN37mv43zPbLqq0YPX4qLvjFc4FdevRj2l2zZb8MBNkRv3b7IRQvUQKrt+7HIdfLGGllyx1DppGOzYaNYTMWGHdfLg8yo1WqV2fWWrfD6bNgo3LPXI5ERMrvaNW2I9p06god3ZpQUlJGm3adUK16DSyw38CmYdq8pXxdhy69uS61ahty2d17D0JZhXKoWcuAGYjYVL9OPc6D3AHJ7BDYiJEUlZShrKyCsgoKnA8BhY7J3JcoUVIObMTU5INRPWsbNmCGpcFCwJSc8YsBSQzy2YtWIeb2CzbTBNI12w5i4+7DUC5fnsHVrfdAdOjaC0bGzZjpSL9bHI5zmwYNtWBTTub9c0JW6ai7L5tdqjO1iayJoooKSzklZSaKuUvWIvLWc9QxNEKv/kMQ+w+DZu/rQjWjUuaOJy+hS0/yf0rBqFGzHA6sdB1tJbA1a2mCdp17yMwwAYKOq+vVyhNsZCaHjh6P8ZN/zhfYyLEn00N5d+nVD3Pt1mDS9IX4ZeUW1KhVB0NHWbOvZb9xD9y8wqChpc0DISvYWrXpiLDrT9C2Uze0NOnAE4QBgy3Yv8wKtjqG9XHRLwFhyY+x9h8zuu/4eT6mCUCbdl3lwEagsbKZhQMul0B+a/tuvTBn8RoG27HzgQw4yo+Ydo7dagalf0waSG/tO/eC/fpd0Deojxat2qNbr4EYNmo8bKbNZ/+5Ri19mA4bg4ibv+OsTxSmzLJDx269Pyl9TYfDwdkdIUmPkfzgPQ6d9GbfsIqOLnYfdmdZsmYHypevwBYhMuUZ9GoboN+gEYjPZdJEff1VwEZMU6VqdWa1ipU0cfjMVWzcdRgdu/aWySFXb1aYBLae/UwxZKQ1GjdrxSzQz9Scj+s3NJYD23m/eJCjqlNDj6/Tq2WAKTMX5QtsPfoNQc9+g9GgUVOYdO6GSpU02dS3atcZdeoZsbNNLHA1/Daib7/EkrU70aJtB2QFm4qKKpq0aAOV8qoop6SEpm3aoYK6uhzYBg61YNbcvOcYuxOT59hxXefbb+Dj3U5nuA6SzyaZUWIO8g/JjSBf8GrYbdSsbci+WmD8A3j4xkG7SjXMW7KOdUcd6BV0A97BN0Dnm7Vqi8mzFmLAYHN0690fB457QE+/DvYePYeYuy9lDDlg8CgoKiqBmLpnXzNU1dFlf7ZLr/58XLdBI3YdyJfMSgzGLdqw+b8WeQ8kTqcuc9+Q+xF+83f2FckSJeaxFm2hgY0K8Am/Da+Qmwi/8RS+0ffQz3QEK87M3Aoz5tlzg8hJJ1m77RD7RpKft2TNNuxyOsMAI2Wv3nqQj2mkKCuXx9ptB+EbnYZVm/ehkqY2VFTKQ0NTGwGxGez35cdnK6eohEHDRsOwQWOYDh2DihU1YDNtAdp17I4+g4ZzXQl4Sf9M+YkFO3TpJQOb1aRZqGvUGF17D2TfqXLV6ug72Bz9h4yCzcyFMp+tY5deKF68BAOyvJoam1xqE5lVOqaZM816s4KNfNZZC1fCMzAZ1WvqM9holrrn8Fk2w+bWtiBQEustWL5JBoK5i1ejYdMWOOJ+DTSwJ06bD5MOXdGoaUts2X+cde3mHSa7nsDDYFNSRpee/ZkFq1XXY3NLYRZiRcP6DfMEGw0GmkCQ0CydBsiQkWO5v6jN1razONyUFaTSfqGBLT71NWgqTbOwExcCuUDb6QsyR2n/wbgaeQ9Hz/nL5FrkXdDMU6GcIl+jrKIK1QrqUClfAbRPWzouU6YsMySlbdp9DIHxGXD3iUKPfmay0MeG3Uc+yWzk86zf7sSssXLDXujWqIXJs+wYbEPNx8KkQzeMmzIHNINevmE3jrj7yuJfWcHWd9Bw6NXUx6Llm3iGOGbcNFCAVFKmtKUQRMMmLeHo6o0jZ30xY+FybuMva7fzMZlKAkNWsGX32YjZKD+aQY6wtMHQkeNw7Kw/z4KXrtnxz7lXzMjNWraF66VgBvDilVth0lEebCc8AjgiQIOH8hw+ZiKDhdyJ1iadeDJDvhiFM+jYsJ4R9A3q4YJfglzbiNlo4rN6ywE5oUkDzeKr6tSAk6u3jEElfUjbQgMbZWg5YRojvXGL1hg7aQ40tbQ5/GG3aqtcpela6iSi6YnTFzCYyJw6n76WQwYPt2KG2HHQDQFxH9emzxpnI7ApKCqBHOc9h91ZKHSgpKzMs1HqsJ79zNhkbtjhxDO/5ev3oLa+Ic/2qunW5BCIopIShyloAHiFXOc6ZwXbuWuxMGzQSOZ000wzO9j8Y9KZTWiiJEXgdxzKjGsdPe/LeUamPIdJpx5yYCOfjdwM22nzUUEtM6QidRL5iNQGGsR0HbE7DSCnU1eYYRcu3YAlq3cwmx4/658DbFv2Hudg7JnLERzXmzLHDl179ZNJZZ3q7Ph36NJTltZ7wGCc9o6Q6zcCG8X0pHpJWwp2n7wYBMqfBu7Bk5dyXEPXFirYfEJv8fSdTAYJ+T/mlrYIv573fxYkn+2Cv7x/QJF1Yr/B5tZM10EJmcuEkyPqFZSE9p17yjEblSWVK20JPBQf8o9Nh3J5VZiZW6JX/8E88/QJu4XYey9x6JQXdGvW5g7W0q6C2gb1ecBci7zDCpPARvU56xONPgOHycqpXqMWxk+eiwPHL4Lyo2smz/6Fz+9xOitTeFaw7XQ8DbvlW0AB57btu/EjL8lnI39QS6sKDz6J2biTIu/itFcYJs9axKDY5HCcwTbKahIqqKlj+wEXjs1RfWLuvpIDGzHWtLmLeYAc9whA6PXHoCcMwy0myITaXKZsWZgOt5Sl0XmXC4Fy/heBTbuqDg6dugzKS07O+/NEgczqpj3HZG2XAFnoYKPRRiOdYmJuXqEc0yG/I2uB2ffzAhsBrZKGNndcs9btZX7UsXP+DAyKZJPvQfntcnKHvmF9bDtwEp4BSSxL1+7kxypuXuG4GJAI4+atsX3/STRt3hY2U+fJqH76z0uZ8Q6c8ML+YxegpFweTZq1BoGa8iawkekcM34qg5DCGD36mYJibuTflCunxOCgztq67zjG2sxAS5NOPPOT2nrwpCeD4bRPOIZZjOdYmKZWZazctA+kn7NXY2Bk3Bxb97tw585csJLzl+633+DAZdMgMm7WCsSepOsOXYmJBmDFBgfWyU6n01zndp26s5k+eTGY/UMKWJM/R+5HoyYtOfZJ8VBJpMFZrNjHNDpHoZrdh9xl/Tdh2lx2RUj3uQnlo1O9BnzCb8nukdpA20JltqwZ53ffK+g6Kzbsxm9yFaQA5G5nd54kkHKl/Iiyj5zzxbFzfgi7nnkPPVQOSngo95ySRjil0TScOoYmLbTvE3abZ26y/FKewTfqnuzh+cXAJPhFpcnA6HD0HDbtOcqzvg07nTmYKT0YpzJIsc5uPli33Qn+sffZTNHjMSpTKoOelHBd0v7gOl+JuIOA2PuyR2L03JMCo9QO6Z6s24ibT+HiEQA3z1B+AkF5k1D7KfBK9TnjE8mBaLovMDYD/lGp/DzVMyARTqe8cDkkBfGpb+ATehMefnH5kgv+8Rybk+oSlfKMQycuF4ORmxC4A2LSc3mZIfPZ7zcHm9QQsf3fe38te58KsIn32XJl0+xAKYxjATYBNgG2whhJIo+iZZoFswlmE8wmWKlosVJh9IdgNsFsgtkKYySJPIoWOwpmE8xWlJntCoKSxSezBGsWnDV9Yp5g8W7/HJ/KkhJyfDLrl73+uBT16D8bDaJTC96pRVVn7sHpWHc4VMJWjm0OsNFnKvd53EBilmd/RbVxol5FB6j05fDtbgk4deVGDpBJCTnAlnDnCZbuD0ZgsvggoABz/sF8Lf53LN0XjFvpzyRs5djmANvff/+NQx4JWHM4HJF3Mv+HKJSef6X/iLoKv/Ua9gdD4HrlxidXe8kBNoLji1fvsPd0DDOcZ8RDJKR/+p21H1HBos1/Ii71HS6EPeBVgJw9EvD67fscbJY1IVew0QUvX7/HpaA7WOkYgiX7grHVNRa73ZOw2z1ZyA+vgyRsORmLJXuDsMoxBNfCU/Hm7YesuMp1P0+w0dW06tqTZ28Rdf0hLgbexulrN4UIHTAGPINuI+bmI/z2/I9Pms6sqPsk2LJeKPaFBv6tBgTY/q0Gxf351oAAW75VJS78txoQYPu3GhT351sD/w9+34LpAKWyCQAAAABJRU5ErkJggg==;" vertex="1" parent="1">
          <mxGeometry x="50" y="863" width="155" height="177" as="geometry" />
        </mxCell>
        <mxCell id="gLh5sbINoUW2zUglVE70-56" value="Text" style="text;html=1;align=center;verticalAlign=middle;whiteSpace=wrap;rounded=0;" vertex="1" parent="1">
          <mxGeometry x="1250" y="380" width="60" height="30" as="geometry" />
        </mxCell>
        <mxCell id="gLh5sbINoUW2zUglVE70-57" value="扣减流量包操作" style="text;html=1;align=center;verticalAlign=middle;whiteSpace=wrap;rounded=0;" vertex="1" parent="1">
          <mxGeometry x="60" y="830" width="130" height="30" as="geometry" />
        </mxCell>
        <mxCell id="gLh5sbINoUW2zUglVE70-59" style="edgeStyle=orthogonalEdgeStyle;rounded=0;orthogonalLoop=1;jettySize=auto;html=1;entryX=0;entryY=0.5;entryDx=0;entryDy=0;entryPerimeter=0;" edge="1" parent="1" source="gLh5sbINoUW2zUglVE70-8" target="gLh5sbINoUW2zUglVE70-5">
          <mxGeometry relative="1" as="geometry" />
        </mxCell>
      </root>
    </mxGraphModel>
  </diagram>
</mxfile>
